<?xml version="1.0" encoding="utf-8"?>
<!-- Generator: Adobe Illustrator 19.0.0, SVG Export Plug-In . SVG Version: 6.00 Build 0)  -->
<svg version="1.1" id="Layer_1" xmlns="http://www.w3.org/2000/svg" xmlns:xlink="http://www.w3.org/1999/xlink" x="0px" y="0px"
	 viewBox="-549 551 100 100" style="enable-background:new -549 551 100 100;" xml:space="preserve">
<style type="text/css">
	.st0{fill:#FFFFFF;}
</style>
<path class="st0" d="M-452.7,619.7l-6.3-3.7c0.2-2.5-0.1-5-0.8-7.3l5.3-5l-3.6-5.8l-6.8,2.6c-1.8-1.7-3.9-3-6.2-3.9c0,0,0,0,0,0
	l-0.6-7.3l-6.8-0.7l-2.2,7c-2.5,0.4-4.8,1.2-6.9,2.5c0,0,0,0,0,0l-6.1-4l-4.8,4.8l4.1,6.1c-1.2,2.1-2,4.4-2.4,7l-7,2.2l0.8,6.8
	l7.3,0.6c0,0,0,0,0,0c0.9,2.3,2.2,4.4,3.9,6.2l-2.6,6.8l5.8,3.6l5-5.3c1.2,0.4,2.4,0.6,3.6,0.8c1.2,0.1,2.5,0.2,3.7,0.1l3.7,6.3
	l6.4-2.3l-1-7.2c2-1.4,3.8-3.2,5.2-5.2v0l7.2,1L-452.7,619.7z M-478.7,620l-3.1-0.1l-1.5-2.7l-1.8-2.5l1.2-2.8l0.8-3l3-0.8l2.8-1.2
	l2.5,1.8l2.7,1.5l0.2,3.1l0.6,3l-2.3,2.1l-2,2.3L-478.7,620z"/>
<path class="st0" d="M-502.8,575.5l-4.5,1.6l0.6,4.4l4.7,0.2v0c0.6,1.5,1.5,2.8,2.7,4l-1.5,4.5l3.8,2.2l3.1-3.6h0
	c0.8,0.2,1.6,0.4,2.4,0.4c0.8,0.1,1.6,0.1,2.4,0h0l2.6,4l4.1-1.6l-0.8-4.7c1.3-0.9,2.4-2.1,3.3-3.5c0,0,0,0,0,0l4.7,0.5l1.3-4.2
	l-4.2-2.3c0,0,0,0,0,0c0.1-1.7-0.2-3.2-0.7-4.7c0,0,0,0,0,0l3.3-3.4l-2.5-3.7l-4.4,1.8c-1.2-1-2.6-1.9-4.1-2.4l-0.6-4.7l-4.4-0.3
	l-1.3,4.6c-1.6,0.3-3.1,0.9-4.5,1.7c0,0,0,0,0,0l-4-2.5l-3,3.2l2.8,3.9v0C-502.1,572.3-502.6,573.8-502.8,575.5z M-494.2,575.2
	l0.5-2l1.9-0.6l1.8-0.8l1.7,1.1l1.8,0.9l0.2,2l0.4,2l-1.5,1.4l-1.3,1.5l-2-0.3l-2,0l-1-1.7l-1.2-1.6L-494.2,575.2z"/>
<path class="st0" d="M-502.1,608.6l1.7-5.5l-5.4-2.9c0,0,0,0,0,0c0.1-2.1-0.2-4.2-0.9-6.1l4.3-4.4l-3.2-4.8l-5.7,2.4
	c-1.5-1.4-3.4-2.4-5.4-3.1l-0.7-6.1l-5.7-0.4l-1.7,5.9c0,0,0,0,0,0c-2.1,0.4-4,1.2-5.8,2.3l-5.2-3.2l-3.9,4.2l3.6,5
	c-1,1.8-1.6,3.8-1.8,5.9l-5.8,2.1l0.8,5.7l6.1,0.3c0,0,0,0,0,0c0.8,1.9,2,3.7,3.5,5.1l0,0l-2,5.8l5,2.9l4.1-4.6c1,0.3,2,0.4,3.1,0.5
	c1.1,0.1,2.1,0.1,3.1-0.1c0,0,0,0,0,0l3.3,5.2l5.4-2.1l-1.1-6.1c1.7-1.2,3.1-2.8,4.2-4.5c0,0,0,0,0,0L-502.1,608.6z M-522.3,604.2
	l-2.6,0l-1.3-2.2l-1.6-2.1l0.9-2.4l0.6-2.5l2.5-0.8l2.4-1.1l2.2,1.4l2.3,1.2l0.2,2.6l0.5,2.5l-1.9,1.8l-1.6,2L-522.3,604.2z"/>
</svg>
