<?xml version="1.0" encoding="UTF-8" standalone="no"?>
<svg width="601px" height="595px" viewBox="0 0 601 595" version="1.1" xmlns="http://www.w3.org/2000/svg" xmlns:xlink="http://www.w3.org/1999/xlink" xmlns:sketch="http://www.bohemiancoding.com/sketch/ns">
    <!-- Generator: Sketch 3.3 (11970) - http://www.bohemiancoding.com/sketch -->
    <title>Fill 13 Copy</title>
    <desc>Created with Sketch.</desc>
    <defs></defs>
    <g id="Grouplend-Customer-Intake-Form" stroke="none" stroke-width="1" fill="none" fill-rule="evenodd" sketch:type="MSPage">
        <g id="Accepted-Loan-Must-Confirm-Email" sketch:type="MSArtboardGroup" transform="translate(-567.000000, -1175.000000)" fill="#000000">
            <path d="M989.185795,1498.31111 C989.168688,1498.29382 989.135544,1498.1717 989.118438,1498.15441 C989.135544,1498.1382 989.168688,1498.05931 989.185795,1498.0431 C1026.66187,1464.13946 1050.26778,1414.85319 1050.26778,1360.13857 C1050.26778,1258.0732 968.096681,1175 867.10415,1175 C766.128726,1175 683.957628,1258.04942 683.957628,1360.11587 C683.957628,1414.83049 707.563536,1464.08111 745.039612,1497.98582 C745.056719,1498.00203 745.089863,1498.01716 745.106969,1498.05066 C745.089863,1498.06795 745.056719,1498.31219 745.039612,1498.32948 C649.115953,1545.93311 579.331034,1648.31189 567.111643,1769.34998 L591.633818,1769.34998 C604.170749,1652.63467 673.238264,1556.29484 766.761667,1515.24672 C766.79588,1515.22943 766.811917,1515.10623 766.845061,1515.09002 C795.669522,1534.23241 830.111332,1545.30955 867.10415,1545.30955 C904.063824,1545.30955 938.522741,1534.15784 967.347202,1515.01437 C967.353617,1515.01112 967.360032,1514.99059 967.367516,1514.98519 C967.393176,1514.99383 967.419905,1515.24564 967.446634,1515.25968 C1060.97004,1556.29052 1130.05466,1652.63467 1142.59159,1769.34998 L1167.11376,1769.34998 C1154.89437,1648.31189 1085.10945,1545.91474 989.185795,1498.31111 L989.185795,1498.31111 Z M794.786399,1504.53701 C794.786399,1504.51972 794.769292,1504.51972 794.769292,1504.51972 C794.685898,1504.47649 794.605712,1504.42786 794.522317,1504.38463 C794.566153,1504.3695 794.609988,1504.35437 794.654893,1504.34032 C785.395997,1499.58417 776.664195,1494.0456 768.546089,1487.6014 C731.08605,1457.96112 706.963739,1411.8402 706.963739,1360.10831 C706.963739,1270.8492 778.798231,1198.22202 867.10415,1198.22202 C955.427175,1198.22202 1027.26167,1270.8492 1027.26167,1360.10831 C1027.26167,1411.77644 1003.19709,1457.76443 965.81617,1487.42633 C965.770196,1487.40687 965.725292,1487.288 965.679318,1487.288 L965.663281,1487.288 C963.057746,1489.44939 960.381647,1491.53514 957.653159,1493.44797 C956.565827,1494.20446 955.471011,1494.99337 954.364434,1495.72284 C953.208676,1496.48473 952.043295,1497.24878 950.866153,1497.97501 C950.270633,1498.34569 949.669767,1498.71961 949.06997,1499.08273 C945.92665,1500.96206 942.718111,1502.74089 939.439008,1504.42245 C939.475359,1504.43326 939.509572,1504.44839 939.545924,1504.4592 C939.509572,1504.47757 939.475359,1504.50026 939.439008,1504.51863 C917.700916,1515.69088 893.127421,1521.99351 867.10415,1521.99351 C841.080879,1521.99351 816.524491,1515.69196 794.786399,1504.53701 L794.786399,1504.53701 Z" id="Fill-13-Copy" sketch:type="MSShapeGroup"></path>
        </g>
    </g>
</svg>